<?xml version="1.0" encoding="utf-8"?>
<svg xmlns="http://www.w3.org/2000/svg" width="65" height="101" viewBox="0 0 65 101" fill="none">
  <g clip-path="url(#clip0_1045_34251)">
    <path d="M32.2376 100.775C50.0419 100.775 64.4751 78.3893 64.4751 50.7753C64.4751 23.1614 50.0419 0.775879 32.2376 0.775879C14.4332 0.775879 0 23.1614 0 50.7753C0 78.3893 14.4332 100.775 32.2376 100.775Z" fill="#DA0A0A"/>
    <path d="M58.6865 66.3114C58.6865 66.5022 58.6383 66.6448 58.5439 66.7402C58.4485 66.8357 58.3059 66.8829 58.115 66.8829C57.8556 66.8829 57.6218 66.5494 57.4138 65.8836C57.2058 65.2177 56.8509 64.8843 56.3491 64.8843C55.9857 64.8843 55.4142 65.1266 54.6347 65.6112C54.3055 65.8364 54.0461 66.0004 53.8552 66.1044C52.4356 66.8839 50.9421 67.4768 49.3756 67.8832C47.8091 68.2896 46.1858 68.4933 44.5068 68.4933C42.0654 68.4933 39.7334 68.0816 37.5086 67.2603C35.2838 66.4379 33.3753 65.2917 31.7831 63.8196C30.0172 62.1749 28.6802 60.2406 27.771 58.0158C26.8617 55.7921 26.4082 53.3293 26.4082 50.6284C26.4082 48.5162 26.6763 46.522 27.2134 44.6435C27.7495 42.765 28.5462 40.9948 29.6023 39.3329C31.3156 36.7189 33.5233 34.7193 36.2241 33.334C38.925 31.9487 41.9625 31.2561 45.3388 31.2561C48.4031 31.2561 51.4578 32.0184 54.505 33.5409C55.1622 33.8701 55.5696 34.0341 55.7251 34.0341C56.0371 34.0341 56.318 33.6964 56.5689 33.0209C56.8198 32.3454 57.0493 32.0077 57.2573 32.0077C57.4653 32.0077 57.6165 32.0946 57.7119 32.2672C57.8062 32.4409 57.8716 32.7432 57.907 33.1764L58.1665 40.9927C58.1665 41.2007 58.1836 41.4087 58.218 41.6156V41.6939C58.218 41.919 58.1665 42.096 58.0625 42.2257C57.9585 42.3554 57.8202 42.4208 57.6465 42.4208C57.3688 42.4208 57.1436 42.0831 56.971 41.4076C56.8155 40.7504 56.6418 40.2046 56.4521 39.7714C55.4474 37.2443 54.0589 35.3701 52.2845 34.1499C50.51 32.9298 48.3066 32.3197 45.6755 32.3197C41.763 32.3197 38.6644 33.9301 36.3796 37.1499C34.0947 40.3697 32.9518 44.7668 32.9518 50.3411C32.9518 55.5176 34.1162 59.6155 36.4439 62.637C38.7716 65.6584 41.9185 67.1681 45.8835 67.1681C48.2208 67.1681 50.2891 66.558 52.0893 65.3378C53.8895 64.1177 55.2576 62.4 56.1926 60.1838C56.6086 59.2145 56.9978 58.1413 57.3613 56.964C57.7247 55.7868 58.0271 55.1981 58.2705 55.1981C58.3916 55.1981 58.4914 55.2496 58.5696 55.3536C58.6479 55.4576 58.6865 55.5787 58.6865 55.7171V66.3114Z" fill="white"/>
    <path d="M19.8636 83.282C19.8636 82.8113 19.9064 82.5186 19.9922 82.405C20.078 82.2913 20.2699 82.2259 20.5701 82.2087C21.0623 82.2087 21.4375 82.7416 21.6949 83.8052C21.9082 84.6608 22.1227 85.3492 22.3371 85.8735C23.3224 88.0372 24.7999 89.713 26.7706 90.8999C28.7413 92.0868 31.0433 92.6798 33.6777 92.6798C36.6755 92.6798 39.0268 92.0343 40.7295 90.7423C42.4321 89.4514 43.2834 87.663 43.2834 85.376C43.2834 84.5215 43.1387 83.727 42.8503 82.9936C42.5608 82.2602 42.1276 81.589 41.5486 80.9779C40.1773 79.5819 36.9436 78.0293 31.8464 76.3181C30.9897 76.0394 30.3474 75.8206 29.9186 75.6641C27.0483 74.6873 24.8364 73.3471 23.2838 71.6455C21.7302 69.944 20.9551 68.0204 20.9551 65.8739C20.9551 63.0819 22.1806 60.7821 24.6337 58.9765C27.0858 57.1699 30.2081 56.2671 33.9993 56.2671C36.6337 56.2671 39.3217 56.8782 42.0633 58.0995C42.8556 58.449 43.3692 58.6227 43.6051 58.6227C44.0114 58.6227 44.3706 58.2914 44.6816 57.6277C44.9914 56.9651 45.3077 56.6327 45.6294 56.6327C45.8867 56.6327 46.0947 56.7421 46.2555 56.9597C46.4164 57.1785 46.4968 57.4615 46.4968 57.81C46.4968 57.9665 46.4646 58.4383 46.4003 59.2231C46.3359 60.008 46.3038 60.7242 46.3038 61.3696C46.3038 61.7192 46.3359 62.2596 46.4003 62.9929C46.4646 63.7263 46.4968 64.2753 46.4968 64.642C46.4968 65.2703 46.4485 65.6723 46.352 65.846C46.2555 66.0208 46.0679 66.1173 45.7902 66.1345C45.2766 66.1345 44.8692 65.6809 44.569 64.7728C44.2902 63.9708 44.0114 63.3157 43.7337 62.8096C42.7698 61.0995 41.4789 59.7957 39.8621 58.8961C38.2452 57.9976 36.3764 57.5484 34.2556 57.5484C31.7499 57.5484 29.7417 58.107 28.232 59.2231C26.7224 60.3403 25.9675 61.806 25.9675 63.6212C25.9675 66.2042 29.1369 68.638 35.4768 70.925L36.0225 71.1083C41.0554 72.9407 44.5411 74.7688 46.4796 76.5926C48.4181 78.4164 49.3874 80.6626 49.3874 83.3335C49.3874 86.4224 47.8981 88.9839 44.9217 91.0168C41.9443 93.0497 38.1959 94.0661 33.6766 94.0661C30.4203 94.0661 27.1437 93.2984 23.8457 91.763C23.0104 91.362 22.4851 91.1605 22.2717 91.1605C21.9715 91.1605 21.6498 91.4317 21.3078 91.9721C20.9647 92.5136 20.6538 92.7838 20.3761 92.7838C20.1402 92.7838 19.9686 92.7226 19.8625 92.6004C19.7553 92.4782 19.7017 92.2863 19.7017 92.0246C19.7017 92.0075 19.7606 91.554 19.8786 90.663C19.9965 89.773 20.0555 88.8831 20.0555 87.9932C20.0555 87.2952 20.0233 86.4182 19.959 85.3621C19.8947 84.3059 19.8625 83.6122 19.8625 83.2809L19.8636 83.282Z" fill="black"/>
    <path d="M29.9226 36.2311C29.9226 38.7754 30.4587 40.477 31.5331 41.3337C32.6063 42.1903 34.8397 42.6192 38.2321 42.6192C40.7421 42.6192 42.7375 42.364 44.2171 41.8537C45.6967 41.3433 46.8354 40.5338 47.632 39.4262C48.1338 38.7336 48.5284 37.7901 48.8136 36.5957C49.0988 35.4012 49.4151 34.804 49.7614 34.804C49.9168 34.804 50.0251 34.8523 50.0862 34.9466C50.1463 35.0421 50.1774 35.3144 50.1774 35.7647L50.0734 42.8798C50.0734 43.4341 49.9994 43.7933 49.8525 43.9573C49.7045 44.1214 49.4065 44.2039 48.9562 44.2039C48.7653 44.2039 48.211 44.1868 47.2943 44.1525C42.3086 43.9101 37.3315 43.789 32.3629 43.789C28.3294 43.789 24.5295 43.8844 20.9634 44.0742C20.5302 44.0913 20.2708 44.0999 20.1839 44.0999C19.8719 44.0999 19.6382 44.0517 19.4827 43.9573C19.3272 43.863 19.2404 43.7193 19.2232 43.5284C19.2404 43.1821 19.6736 42.957 20.5217 42.853C20.5903 42.8358 20.6428 42.8272 20.6771 42.8272C21.1092 42.7929 21.4866 42.7361 21.8072 42.6589C22.1278 42.5806 22.4173 42.482 22.6768 42.3598C23.3169 42.0477 23.7629 41.6114 24.0138 41.0485C24.2647 40.4856 24.3901 39.4863 24.3901 38.0495V14.1075C24.3901 12.7405 24.2647 11.7702 24.0138 11.1997C23.7629 10.6283 23.3254 10.1962 22.7025 9.90133C22.443 9.79732 22.1439 9.71155 21.8061 9.64186C21.4684 9.57324 21.0921 9.5207 20.6761 9.48639C20.6407 9.48639 20.5892 9.47781 20.5206 9.46066C19.6725 9.35665 19.2393 9.16688 19.2222 8.88918C19.2222 8.73371 19.309 8.60827 19.4816 8.51284C19.6543 8.41742 19.888 8.37024 20.1829 8.37024C20.304 8.37024 20.5989 8.37882 21.0653 8.39597C23.1775 8.51713 25.2114 8.57824 27.1671 8.57824C29.2793 8.57824 31.3819 8.5182 33.4769 8.39597C33.8233 8.37882 34.0388 8.37024 34.1256 8.37024C34.4194 8.37024 34.6488 8.40884 34.814 8.48711C34.978 8.56538 35.0691 8.68225 35.0863 8.83771C35.0863 9.09718 34.7314 9.29661 34.0216 9.43492C33.9348 9.45208 33.8661 9.47031 33.8136 9.48639C33.5541 9.48639 33.285 9.50783 33.0084 9.55179C32.7318 9.59468 32.4112 9.66008 32.0477 9.74693C31.2682 9.95494 30.7193 10.3699 30.3987 10.9928C30.0781 11.6158 29.9183 12.6547 29.9183 14.1086V36.2322L29.9226 36.2311Z" fill="black"/>
  </g>
  <defs>
    <clipPath id="clip0_1045_34251">
      <rect width="64.4751" height="100" fill="white" transform="translate(0 0.775879)"/>
    </clipPath>
  </defs>
</svg>